<?xml version="1.0" standalone="no"?>
<!DOCTYPE svg PUBLIC "-//W3C//DTD SVG 20010904//EN"
        "http://www.w3.org/TR/2001/REC-SVG-20010904/DTD/svg10.dtd">
<svg version="1.0" xmlns="http://www.w3.org/2000/svg"
     width="512.000000pt" height="512.000000pt" viewBox="0 0 512.000000 512.000000"
     preserveAspectRatio="xMidYMid meet">
    <metadata>
        Created by potrace 1.14, written by Peter Selinger 2001-2017
    </metadata>
    <g transform="translate(0.000000,512.000000) scale(0.100000,-0.100000)"
       fill="#000000" stroke="none">
        <path d="M2201 4170 c-361 -18 -762 -60 -866 -91 -81 -24 -139 -55 -177 -96
-28 -30 -131 -207 -247 -425 l-73 -136 -44 33 c-54 41 -91 49 -198 42 -115 -7
-235 -48 -286 -96 -36 -34 -40 -43 -40 -87 0 -92 32 -110 210 -120 117 -6 170
-19 170 -39 0 -8 -25 -40 -56 -72 -57 -58 -194 -230 -251 -313 -46 -68 -97
-175 -129 -270 -28 -84 -28 -88 -32 -369 -4 -322 3 -379 63 -491 l35 -64 0
-293 0 -294 25 -24 24 -25 306 0 306 0 24 25 c25 24 25 27 25 195 l0 170 1575
0 1575 0 0 -170 c0 -168 0 -171 25 -195 l24 -25 306 0 306 0 24 25 25 24 0
299 0 299 34 74 c53 114 58 160 54 474 -4 276 -4 281 -32 365 -16 47 -44 117
-63 155 -56 110 -184 291 -277 393 -47 50 -86 99 -86 107 0 23 34 32 160 38
187 10 220 28 220 121 0 44 -4 53 -40 87 -53 51 -171 89 -296 96 -105 6 -149
-5 -199 -49 l-34 -29 -22 43 c-69 137 -267 483 -296 517 -65 77 -171 111 -433
141 -424 48 -974 68 -1339 50z m1584 -194 c63 -27 124 -96 207 -234 158 -267
172 -307 128 -379 l-20 -33 -1535 0 -1535 0 -20 33 c-33 53 -27 108 22 196
124 227 198 339 246 375 27 19 60 40 73 45 15 6 479 10 1212 10 1006 1 1193
-1 1222 -13z m-2930 -1240 c44 -8 148 -24 230 -36 170 -24 215 -44 267 -113
49 -67 70 -121 58 -151 -18 -49 -46 -52 -211 -27 -169 26 -196 24 -297 -19
-39 -16 -77 -30 -84 -30 -8 0 -48 21 -90 48 -42 26 -90 55 -108 64 -58 33 -77
134 -40 216 10 23 29 46 42 52 35 13 143 12 233 -4z m3649 4 c32 -12 56 -59
63 -124 7 -66 -15 -120 -58 -144 -17 -9 -59 -34 -93 -56 -97 -62 -106 -63
-186 -27 -100 44 -129 46 -299 20 -166 -25 -191 -22 -213 27 -27 59 98 225
181 240 20 4 126 22 236 39 208 34 326 42 369 25z m-2074 -132 c66 -33 80 -69
80 -197 0 -133 -19 -179 -85 -211 -43 -21 -55 -21 -327 -18 -247 3 -288 6
-326 22 -50 22 -113 89 -164 177 -32 53 -38 73 -38 119 0 35 6 64 16 79 34 48
54 50 439 51 355 0 362 0 405 -22z m1065 8 c101 -42 79 -196 -50 -343 -74 -84
-84 -87 -420 -90 -287 -4 -290 -3 -329 19 -66 39 -77 73 -74 220 3 124 4 127
31 156 16 16 43 34 60 40 19 6 176 10 390 11 288 1 364 -2 392 -13z m-84 -839
c-34 -98 -65 -139 -148 -195 l-31 -22 -670 0 -669 0 -57 42 c-47 34 -64 55
-91 113 -18 38 -36 80 -40 93 l-6 22 865 0 865 0 -18 -53z"/>
    </g>
</svg>
