<?xml version="1.0" standalone="no"?>
<!DOCTYPE svg PUBLIC "-//W3C//DTD SVG 20010904//EN"
        "http://www.w3.org/TR/2001/REC-SVG-20010904/DTD/svg10.dtd">
<svg version="1.0" xmlns="http://www.w3.org/2000/svg"
     width="256.000000pt" height="256.000000pt" viewBox="0 0 256.000000 256.000000"
     preserveAspectRatio="xMidYMid meet">
    <metadata>
        Created by potrace 1.14, written by Peter Selinger 2001-2017
    </metadata>
    <g transform="translate(0.000000,256.000000) scale(0.100000,-0.100000)"
       fill="#000000" stroke="none">
        <path d="M772 2150 c-80 -19 -124 -67 -251 -272 -71 -114 -91 -133 -91 -84 0
57 -70 64 -200 21 -92 -30 -110 -45 -110 -85 0 -50 21 -60 124 -60 85 0 116
-8 116 -31 0 -4 -46 -43 -103 -88 -56 -44 -109 -92 -118 -108 -30 -51 -50
-182 -56 -363 -8 -266 18 -423 83 -488 33 -33 34 -36 34 -113 l0 -79 145 0
144 0 3 68 3 67 785 0 785 0 3 -68 3 -67 144 0 145 0 0 80 c0 78 1 82 33 113
65 66 93 226 84 486 -6 180 -23 294 -52 355 -11 22 -55 64 -121 116 -57 45
-104 85 -104 89 0 23 31 31 115 31 101 0 125 12 125 63 0 37 -20 52 -110 82
-130 43 -200 36 -200 -21 0 -12 -4 -25 -9 -28 -5 -3 -49 58 -98 136 -91 147
-138 204 -195 235 -30 17 -72 18 -528 20 -272 1 -510 -2 -528 -7z m1013 -91
c22 -6 53 -26 70 -45 43 -47 155 -235 155 -260 0 -50 12 -49 -690 -52 -362 -2
-679 1 -705 5 -88 15 -86 41 14 199 78 124 85 131 138 150 49 17 956 20 1018
3z m-1421 -748 c111 -44 132 -60 146 -110 12 -42 13 -111 3 -111 -12 0 -214
49 -249 61 -17 5 -36 21 -43 35 -15 33 -14 137 1 152 19 19 39 15 142 -27z
m1974 27 c7 -7 12 -39 12 -74 0 -95 -13 -106 -168 -143 -70 -17 -131 -31 -135
-31 -10 0 -8 69 3 111 14 49 35 66 142 110 100 41 127 46 146 27z m-708 -45
c292 -6 294 -7 318 -30 19 -19 22 -30 17 -56 -18 -79 -73 -155 -137 -188 -85
-44 -142 -49 -548 -49 -305 0 -398 3 -448 15 -111 26 -169 67 -210 150 -32 65
-36 98 -13 126 19 23 23 24 213 29 327 10 501 10 808 3z m-1257 -415 l149 -51
-6 -31 c-7 -38 -39 -66 -75 -66 -63 0 -190 33 -210 54 -35 37 -45 146 -13 146
3 0 73 -23 155 -52z m1976 43 c10 -6 12 -23 9 -60 -7 -75 -30 -95 -131 -115
-45 -9 -94 -16 -108 -16 -36 0 -68 28 -75 66 l-6 31 144 51 c165 58 149 54
167 43z m-565 -116 c59 -28 96 -70 96 -109 0 -25 -6 -38 -19 -46 -13 -6 -213
-10 -581 -10 -368 0 -568 4 -581 10 -32 18 -26 75 13 110 67 61 50 60 566 60
403 0 479 -2 506 -15z"/>
        <path d="M1209 1243 c-58 -35 -79 -122 -44 -181 49 -83 180 -84 229 -2 35 60
13 150 -44 184 -36 20 -107 20 -141 -1z m150 -34 c26 -26 31 -38 31 -79 0 -41
-5 -53 -30 -79 -34 -33 -59 -40 -110 -29 -52 11 -80 48 -80 109 0 42 5 55 29
80 25 24 38 29 79 29 43 0 55 -5 81 -31z"/>
    </g>
</svg>
