<?xml version="1.0" standalone="no"?>
<!DOCTYPE svg PUBLIC "-//W3C//DTD SVG 20010904//EN"
        "http://www.w3.org/TR/2001/REC-SVG-20010904/DTD/svg10.dtd">
<svg version="1.0" xmlns="http://www.w3.org/2000/svg"
     width="512.000000pt" height="512.000000pt" viewBox="0 0 512.000000 512.000000"
     preserveAspectRatio="xMidYMid meet">
    <metadata>
        Created by potrace 1.14, written by Peter Selinger 2001-2017
    </metadata>
    <g transform="translate(0.000000,512.000000) scale(0.100000,-0.100000)"
       fill="#000000" stroke="none">
        <path d="M2088 4490 c-79 -42 -108 -111 -108 -261 l0 -96 -82 -8 c-172 -15
-357 -80 -499 -175 -88 -60 -219 -189 -279 -277 -28 -40 -76 -126 -106 -190
-67 -143 -141 -257 -228 -349 l-65 -69 -33 33 c-31 30 -32 34 -18 56 67 107
74 122 78 170 3 45 1 54 -21 75 -77 71 -339 -28 -430 -161 -33 -50 -35 -95 -5
-133 28 -36 114 -90 206 -130 l74 -32 -59 -35 c-32 -20 -91 -52 -131 -73 -125
-65 -198 -159 -222 -285 -7 -34 -8 -121 -4 -231 6 -154 5 -178 -10 -201 -15
-23 -16 -88 -14 -752 3 -707 4 -728 22 -742 16 -11 83 -14 367 -14 l348 0 15
22 c12 17 16 48 16 119 l0 97 -32 5 c-18 3 -64 9 -101 13 -85 8 -116 31 -124
91 -5 37 -2 45 25 72 23 24 37 30 59 26 35 -6 291 -30 481 -46 206 -17 258 4
314 128 19 43 37 67 57 78 26 13 148 15 984 15 1096 0 981 12 1035 -104 23
-49 41 -72 73 -93 41 -27 48 -28 148 -26 59 1 202 11 319 22 278 27 277 27
313 -8 31 -32 36 -64 17 -106 -17 -39 -53 -52 -156 -60 l-92 -8 0 -96 c0 -71
4 -102 16 -119 l15 -22 347 0 c191 0 352 4 358 8 33 22 34 49 34 764 0 640 -2
716 -16 737 -14 19 -16 58 -18 244 l-1 222 -33 67 c-42 85 -103 141 -224 203
-51 26 -106 57 -121 68 l-29 20 92 43 c214 102 253 171 160 277 -68 77 -185
139 -294 157 -147 23 -186 -81 -85 -225 l39 -56 -26 -35 c-15 -19 -30 -34 -34
-34 -16 0 -144 146 -192 219 -28 42 -76 131 -108 197 -32 67 -77 150 -100 185
-58 86 -198 223 -289 284 -139 92 -326 157 -493 171 l-78 7 0 96 c0 151 -29
220 -110 261 -37 19 -59 20 -472 20 -410 -1 -435 -2 -470 -20z m1252 -578
c160 -45 294 -123 400 -231 84 -85 136 -165 189 -287 67 -155 138 -302 162
-335 11 -17 19 -32 16 -35 -18 -18 -452 -94 -707 -123 -323 -37 -471 -45 -835
-45 -519 -1 -889 33 -1370 125 -214 40 -199 35 -176 67 28 40 86 160 146 299
68 159 105 219 189 310 139 149 314 242 511 272 33 5 362 8 730 7 653 -2 672
-2 745 -24z m-2479 -1633 c187 -58 621 -211 689 -243 61 -28 88 -81 71 -136
-6 -22 -23 -48 -38 -59 -25 -20 -37 -21 -467 -21 l-441 0 -51 24 c-59 27 -116
90 -132 145 -17 55 -15 216 2 249 32 62 112 107 172 97 18 -3 105 -28 195 -56z
m3651 51 c44 -13 93 -52 113 -91 10 -19 15 -59 15 -126 0 -82 -4 -106 -24
-148 -28 -60 -66 -97 -126 -124 -43 -20 -64 -21 -488 -21 l-444 0 -28 29 c-49
48 -52 105 -7 156 23 27 76 48 427 172 174 61 493 162 515 163 6 0 27 -5 47
-10z"/>
    </g>
</svg>
